<svg xmlns="http://www.w3.org/2000/svg" xmlns:xlink="http://www.w3.org/1999/xlink" width="1080" zoomAndPan="magnify" viewBox="0 0 810 809.999993" height="1080" preserveAspectRatio="xMidYMid meet" version="1.0"><defs><clipPath id="e715018f4a"><path d="M 27 510 L 783.527344 510 L 783.527344 542.394531 L 27 542.394531 Z M 27 510 " clip-rule="nonzero"/></clipPath><clipPath id="439761907f"><path d="M 27 267.894531 L 783.527344 267.894531 L 783.527344 300 L 27 300 Z M 27 267.894531 " clip-rule="nonzero"/></clipPath><clipPath id="ffdcc8a888"><path d="M 27 388 L 783.527344 388 L 783.527344 422 L 27 422 Z M 27 388 " clip-rule="nonzero"/></clipPath></defs><g clip-path="url(#e715018f4a)"><path fill="#6b7280" d="M 42.894531 542.394531 C 33.707031 542.394531 27.144531 535.828125 27.144531 526.632812 C 27.144531 517.441406 33.707031 510.871094 42.894531 510.871094 L 767.410156 510.871094 C 776.597656 510.871094 783.160156 517.441406 783.160156 526.632812 C 783.160156 535.828125 776.597656 542.394531 767.410156 542.394531 Z M 42.894531 542.394531 " fill-opacity="1" fill-rule="nonzero"/></g><g clip-path="url(#439761907f)"><path fill="#6b7280" d="M 42.894531 299.414062 C 33.707031 299.414062 27.144531 292.847656 27.144531 283.65625 C 27.144531 274.460938 33.707031 267.894531 42.894531 267.894531 L 767.410156 267.894531 C 776.597656 267.894531 783.160156 274.460938 783.160156 283.65625 C 783.160156 292.847656 776.597656 299.414062 767.410156 299.414062 Z M 42.894531 299.414062 " fill-opacity="1" fill-rule="nonzero"/></g><g clip-path="url(#ffdcc8a888)"><path fill="#6b7280" d="M 42.894531 421.5625 C 33.707031 421.5625 27.144531 413.679688 27.144531 404.488281 C 27.144531 396.605469 33.707031 388.726562 42.894531 388.726562 L 767.410156 388.726562 C 776.597656 388.726562 783.160156 396.605469 783.160156 404.488281 C 783.160156 413.679688 776.597656 421.5625 767.410156 421.5625 Z M 42.894531 421.5625 " fill-opacity="1" fill-rule="nonzero"/></g></svg>